<svg xmlns="http://www.w3.org/2000/svg" viewBox="0 0 32 32" shape-rendering="crispEdges">
  <!-- Teal desktop background (outer border) -->
  <rect width="32" height="32" fill="#008080"/>

  <!-- Dark blue title bar -->
  <rect x="1" y="1" width="30" height="3" fill="#000080"/>

  <!-- Gray window frame -->
  <rect x="1" y="4" width="30" height="27" fill="#c0c0c0"/>

  <!-- Coral-pink canvas area -->
  <rect x="2" y="5" width="28" height="25" fill="#FF3B4A"/>

  <!-- Black Mandelbrot set silhouette (simplified for 28x25 canvas) -->
  <!-- Main cardioid body -->
  <rect x="17" y="8" width="1" height="1" fill="#000"/>
  <rect x="16" y="9" width="2" height="1" fill="#000"/>
  <rect x="15" y="10" width="4" height="1" fill="#000"/>
  <rect x="14" y="11" width="6" height="1" fill="#000"/>
  <rect x="13" y="12" width="8" height="1" fill="#000"/>
  <rect x="12" y="13" width="10" height="1" fill="#000"/>
  <rect x="11" y="14" width="11" height="1" fill="#000"/>
  <rect x="11" y="15" width="12" height="1" fill="#000"/>
  <rect x="11" y="16" width="13" height="1" fill="#000"/>
  <rect x="11" y="17" width="13" height="1" fill="#000"/>
  <rect x="11" y="18" width="12" height="1" fill="#000"/>
  <rect x="11" y="19" width="11" height="1" fill="#000"/>
  <rect x="12" y="20" width="10" height="1" fill="#000"/>
  <rect x="13" y="21" width="8" height="1" fill="#000"/>
  <rect x="14" y="22" width="6" height="1" fill="#000"/>
  <rect x="15" y="23" width="4" height="1" fill="#000"/>
  <rect x="16" y="24" width="2" height="1" fill="#000"/>
  <rect x="17" y="25" width="1" height="1" fill="#000"/>

  <!-- Main bulb (left circle) -->
  <rect x="6" y="14" width="1" height="1" fill="#000"/>
  <rect x="5" y="15" width="3" height="1" fill="#000"/>
  <rect x="4" y="16" width="5" height="1" fill="#000"/>
  <rect x="4" y="17" width="5" height="1" fill="#000"/>
  <rect x="5" y="18" width="3" height="1" fill="#000"/>
  <rect x="6" y="19" width="1" height="1" fill="#000"/>

  <!-- Connection between bulb and cardioid -->
  <rect x="9" y="15" width="2" height="1" fill="#000"/>
  <rect x="9" y="16" width="2" height="1" fill="#000"/>
  <rect x="9" y="17" width="2" height="1" fill="#000"/>
  <rect x="9" y="18" width="2" height="1" fill="#000"/>

  <!-- Small antenna bulb at top -->
  <rect x="16" y="6" width="2" height="1" fill="#000"/>
  <rect x="16" y="7" width="2" height="1" fill="#000"/>

  <!-- Small secondary bulb (left) -->
  <rect x="3" y="16" width="1" height="1" fill="#000"/>
  <rect x="3" y="17" width="1" height="1" fill="#000"/>
</svg>
